TexturaLiberaCond-ExtraLight.sfdir
StartChar: exclam
Encoding: 33 33 1
Width: 240
Flags: W
HStem: 607 20G<136 167>
VStem: 85 70<282.346 543.974> 93 54<206 391.025>
LayerCount: 2
Back
SplineSet
110 20 m 25
 130 0 l 1049
100 560 m 1
 100 560 111 524 112 500 c 24
 118 379 120 190 120 190 c 1
 120 190 122 379 128 500 c 24
 129 539 140 600 140 600 c 9
 100 560 l 1
EndSplineSet
Fore
SplineSet
73 544 m 1xc0
 156 627 l 1
 167 616 l 1
 167 616 156 555 155 516 c 0xc0
 149 395 147 206 147 206 c 1
 104 163 l 1
 93 174 l 1xa0
 93 174 91 363 85 484 c 0
 84 508 73 544 73 544 c 1xc0
83 4 m 1
 126 47 l 1
 157 16 l 1
 114 -27 l 1
 83 4 l 1
EndSplineSet
EndChar
StartChar: quotesingle
Encoding: 39 39 7
Width: 240
Flags: W
HStem: 468 124
VStem: 68 84
LayerCount: 2
Back
SplineSet
105 565 m 25
 125 545 l 1
 125 525 l 25
 95 495 l 1049
EndSplineSet
Fore
SplineSet
78 549 m 1
 121 592 l 1
 152 561 l 1
 152 541 l 1
 79 468 l 1
 68 479 l 1
 98 509 l 1
 98 529 l 1
 78 549 l 1
EndSplineSet
EndChar
StartChar: parenright
Encoding: 41 41 9
Width: 200
Flags: W
HStem: -177 21G<13 44>
VStem: 133 54<87.3832 462.617>
LayerCount: 2
Back
SplineSet
40 700 m 17
 40 700 160 575 160 275 c 0
 160 -25 40 -150 40 -150 c 1033
EndSplineSet
Fore
SplineSet
56 727 m 1
 67 716 l 1
 67 716 187 591 187 291 c 0
 187 -9 67 -134 67 -134 c 1
 24 -177 l 1
 13 -166 l 1
 13 -166 133 -41 133 259 c 0
 133 559 13 684 13 684 c 1
 56 727 l 1
EndSplineSet
EndChar
StartChar: plus
Encoding: 43 43 11
Width: 480
Flags: W
HStem: 273 54<96 213 267 384> 507 20G<236 267>
VStem: 213 54<116 273 327 484>
LayerCount: 2
Back
SplineSet
240 500 m 25
 240 100 l 1049
80 300 m 25
 400 300 l 1049
EndSplineSet
Fore
SplineSet
53 284 m 1
 96 327 l 1
 213 327 l 1
 213 484 l 1
 256 527 l 1
 267 516 l 1
 267 327 l 1
 416 327 l 1
 427 316 l 1
 384 273 l 1
 267 273 l 1
 267 116 l 1
 224 73 l 1
 213 84 l 1
 213 273 l 1
 64 273 l 1
 53 284 l 1
EndSplineSet
EndChar
StartChar: period
Encoding: 46 46 14
Width: 240
Flags: W
HStem: -27 74
VStem: 83 74
LayerCount: 2
Back
SplineSet
110 20 m 25
 130 0 l 1049
EndSplineSet
Fore
SplineSet
83 4 m 1
 126 47 l 1
 157 16 l 1
 114 -27 l 1
 83 4 l 1
EndSplineSet
EndChar
StartChar: slash
Encoding: 47 47 15
Width: 400
Flags: W
HStem: -177 21G<13 44>
LayerCount: 2
Back
SplineSet
40 -150 m 25
 360 700 l 1049
EndSplineSet
Fore
SplineSet
24 -177 m 1
 13 -166 l 1
 333 684 l 1
 376 727 l 1
 387 716 l 1
 67 -134 l 1
 24 -177 l 1
EndSplineSet
EndChar
StartChar: less
Encoding: 60 60 28
Width: 480
Flags: W
HStem: 507 20G<384 427>
LayerCount: 2
Back
SplineSet
400 500 m 25
 80 300 l 25
 400 100 l 1049
EndSplineSet
Fore
SplineSet
427 516 m 1
 384 473 l 1
 123 310 l 1
 416 127 l 1
 427 116 l 1
 384 73 l 1
 64 273 l 1
 53 284 l 1
 96 327 l 1
 416 527 l 1
 427 516 l 1
EndSplineSet
EndChar
StartChar: question
Encoding: 63 63 31
Width: 320
Flags: W
HStem: 607 20G<136 196>
VStem: 53 54<466 524> 133 54<206 304> 213 54<416 529>
CounterMasks: 1 70
LayerCount: 2
Back
SplineSet
80 450 m 25
 80 540 l 25
 140 600 l 25
 240 550 l 25
 240 400 l 25
 160 320 l 25
 160 190 l 1049
150 20 m 25
 170 0 l 1049
EndSplineSet
Fore
SplineSet
123 4 m 1
 166 47 l 1
 197 16 l 1
 154 -27 l 1
 123 4 l 1
64 423 m 1
 53 434 l 1
 53 524 l 1
 156 627 l 1
 256 577 l 1
 267 566 l 1
 267 416 l 1
 187 336 l 1
 187 206 l 1
 144 163 l 1
 133 174 l 1
 133 304 l 1
 213 384 l 1
 213 529 l 1
 124 573 l 1
 107 556 l 1
 107 466 l 1
 64 423 l 1
EndSplineSet
EndChar
StartChar: F
Encoding: 70 70 38
Width: 560
Flags: W
HStem: -27 21G<13 44.5 193 224> 23 54<78.473 151.321> 273 54<380.5 423.733> 323 54<319.177 347.929> 498 54<364.005 426.843> 523 21G<13 44> 573 54<77.8262 132.32> 573 36<79 114.391>
VStem: 152 16<76 549> 233 54<56 296 323 544>
AnchorPoint: "blwmark" 280 0 basechar 0
AnchorPoint: "abvmark" 320 700 basechar 0
LayerCount: 2
Back
SplineSet
40 0 m 17
 40 0 65 50 120 50 c 3
 198 50 220 0 220 0 c 9
 260 40 l 1
 260 560 l 1
 300 600 l 1
 300 600 351 525 400 525 c 27
 443 525 480 600 481 600 c 1025
40 550 m 1
 40 550 67 600 99 600 c 3
 128 600 142 575 160 575 c 3
 182 575 200 600 201 600 c 1025
160 550 m 1
 160 75 l 1025
280 300 m 1
 280 300 315 350 337 350 c 3
 365 350 372 300 400 300 c 3
 433 300 460 350 461 350 c 1049
EndSplineSet
Fore
SplineSet
24 523 m 1xd6c0
 13 534 l 1
 13 534 23 552 37 566 c 2
 79 609 l 2
 80 609 l 0xc5c0
 90 619 102 627 115 627 c 0
 144 627 158 602 176 602 c 0
 187 602 197 608 204 614 c 2
 216 626 l 2
 217 627 l 2xc2c0
 228 616 l 1
 226 614 l 2
 225 613 223 611 221 609 c 2
 221 608 l 2
 178 566 l 2
 175 563 172 560 168 557 c 1
 168 74 l 1
 194 68 212 56 222 46 c 2
 233 34 l 1
 233 544 l 1xc5c0
 316 627 l 1
 327 616 l 1
 327 616 337 600 352 584 c 0
 370 567 394 552 416 552 c 0
 424 552 432 555 438 558 c 0
 448 572 453 583 454 584 c 2
 496 627 l 2
 497 627 l 1
 508 616 l 2
 506 614 491 586 470 564 c 2
 470 563 l 2
 427 520 l 2
 414 508 400 498 384 498 c 0
 359 498 335 517 316 536 c 0
 315 536 l 2
 304 548 l 2
 297 555 292 561 287 567 c 1
 287 323 l 1
 322 358 l 2
 332 368 344 377 353 377 c 0xdac0
 361 377 367 373 372 368 c 2
 383 356 l 2
 390 349 396 339 402 331 c 0
 406 328 411 327 416 327 c 0xe0c0
 422 327 427 329 431 331 c 0
 434 334 l 2
 476 377 l 2
 477 377 l 2xd0c0
 488 366 l 2
 486 364 478 348 465 335 c 2
 464 335 l 2
 421 292 l 2
 411 282 398 273 384 273 c 0xe0c0
 377 273 371 277 366 282 c 2
 365 282 l 1
 354 294 l 2
 347 301 342 310 335 319 c 0
 332 321 326 323 321 323 c 0
 317 323 315 323 310 320 c 0
 309 318 307 316 307 316 c 1
 287 296 l 1
 287 56 l 1
 204 -27 l 1
 193 -16 l 2
 193 -16 190 -11 184 -3 c 0
 169 9 144 23 104 23 c 0
 88 23 77 19 65 13 c 2
 24 -27 l 1
 13 -16 l 1
 13 -16 19 -4 31 8 c 2
 73 50 l 2
 74 51 l 0
 87 64 108 77 136 77 c 0
 142 77 147 77 152 76 c 1
 152 549 l 2
 150 548 147 548 144 548 c 0
 126 548 112 573 83 573 c 0
 78 573 75 572 70 570 c 0
 69 568 67 566 67 566 c 1
 24 523 l 1xd6c0
497 627 m 1xc2c0
 498 627 497 627 497 627 c 1xc2c0
EndSplineSet
EndChar
StartChar: G
Encoding: 71 71 39
Width: 600
Flags: W
HStem: -27 54<245.025 393.829> 337 54<429.633 482> 465 21G<213 232> 507 20G<336 367> 523 54<418 465.607> 573 54<334.081 376.575>
VStem: 73 54<174.911 405.023> 232 16<70 473 520 579> 313 54<116 276 304 484> 493 54<124.772 324.421>
AnchorPoint: "blwmark" 320 0 basechar 0
AnchorPoint: "abvmark" 360 700 basechar 0
LayerCount: 2
Back
SplineSet
380 300 m 17
 380 300 418 364 460 364 c 3
 505 364 520 306 520 200 c 3
 520 75 415 0 320 0 c 3
 176 0 100 134 100 300 c 3
 100 480 240 600 240 600 c 1025
240 550 m 1
 240 100 l 1025
340 500 m 1
 340 100 l 1025
240 492 m 1
 240 492 316 600 364 600 c 3
 415 600 394 550 440 550 c 3
 478 550 500 600 501 600 c 1025
EndSplineSet
Fore
SplineSet
224 465 m 1xe7c0
 213 476 l 1
 213 476 220 487 232 501 c 1
 232 579 l 1
 191 531 127 437 127 316 c 0
 127 219 153 132 204 77 c 0
 238 45 283 27 336 27 c 0
 377 27 420 40 456 67 c 1
 479 98 493 138 493 184 c 0
 493 255 486 305 468 330 c 0
 461 335 453 337 444 337 c 0
 434 337 425 334 415 328 c 0
 410 321 407 316 407 316 c 1
 367 276 l 1
 367 116 l 1
 324 73 l 1
 313 84 l 1
 313 484 l 1
 356 527 l 1
 367 516 l 1
 367 304 l 1
 371 309 376 315 382 321 c 2
 425 364 l 2
 425 365 l 0
 439 379 458 391 476 391 c 0
 488 391 497 387 505 379 c 2
 517 367 l 2
 539 345 547 294 547 216 c 0
 547 158 524 110 490 76 c 2
 447 33 l 2
 408 -6 355 -27 304 -27 c 0
 248 -27 202 -6 167 29 c 2
 156 40 l 1
 155 40 l 2
 101 94 73 183 73 284 c 0
 73 431 167 539 201 573 c 2
 243 615 l 1
 244 616 l 2
 252 624 256 627 256 627 c 2
 267 616 l 1
 241 590 l 2
 238 587 235 584 232 580 c 2
 248 580 l 1
 248 520 l 1
 254 527 261 535 268 542 c 2
 311 584 l 2
 334 607 359 627 380 627 c 0xf7c0
 395 627 403 623 409 617 c 2
 421 605 l 2
 428 598 431 588 436 581 c 0
 441 578 447 577 456 577 c 0xebc0
 462 577 467 579 471 580 c 0
 473 583 474 584 474 584 c 2
 516 627 l 2
 517 627 l 0xe7c0
 528 616 l 2
 527 614 518 598 505 584 c 2
 462 541 l 2
 452 531 439 523 424 523 c 0xebc0
 412 523 404 527 399 532 c 2
 388 543 l 2
 381 550 378 560 372 568 c 0
 367 571 359 573 348 573 c 0
 334 573 317 563 300 549 c 0
 281 528 267 508 267 508 c 1
 248 489 l 1
 248 70 l 1
 232 70 l 1
 232 473 l 1
 224 465 l 1xe7c0
EndSplineSet
EndChar
StartChar: underscore
Encoding: 95 95 63
Width: 560
Flags: W
HStem: -177 54<96 464>
LayerCount: 2
Back
SplineSet
80 -150 m 25
 480 -150 l 1049
EndSplineSet
Fore
SplineSet
53 -166 m 1
 96 -123 l 1
 496 -123 l 1
 507 -134 l 1
 464 -177 l 1
 64 -177 l 1
 53 -166 l 1
EndSplineSet
EndChar
StartChar: grave
Encoding: 96 96 64
Width: 320
Flags: W
HStem: 523 204
VStem: 73 54<646.34 684>
LayerCount: 2
Back
SplineSet
100 700 m 17
 100 600 220 550 220 550 c 1049
EndSplineSet
Fore
SplineSet
116 727 m 1
 127 716 l 1
 127 678 146 645 167 622 c 0
 200 592 236 577 236 577 c 2
 247 566 l 1
 204 523 l 1
 204 523 164 540 130 574 c 2
 118 585 l 2
 94 609 73 642 73 684 c 1
 116 727 l 1
EndSplineSet
EndChar
StartChar: e
Encoding: 101 101 69
Width: 280
Flags: W
HStem: 407 20G<156 196> 407 20G<156 196>
VStem: 53 54<96 136 158 304>
AnchorPoint: "blwmark" 160 0 basechar 0
AnchorPoint: "abvmark" 160 500 basechar 0
LayerCount: 2
Back
SplineSet
240 80 m 9
 160 0 l 25
 80 80 l 25
 80 320 l 25
 160 400 l 25
 240 320 l 1
 240 280 l 9
 80 120 l 1049
EndSplineSet
Fore
SplineSet
107 158 m 1x20
 213 264 l 1
 213 304 l 1
 144 373 l 1
 107 336 l 1
 107 158 l 1x20
107 136 m 1
 107 96 l 1
 176 27 l 1
 256 107 l 1
 267 96 l 1
 144 -27 l 1
 53 64 l 1
 53 304 l 1
 176 427 l 1xa0
 267 336 l 1
 267 296 l 1
 107 136 l 1
EndSplineSet
EndChar
StartChar: m
Encoding: 109 109 77
Width: 480
Flags: W
HStem: 407 20G<66 96 176 216 336 376> 407 20G<66 96 176 216 336 376>
VStem: 53 54<26 316 338 374> 213 54<26 316 338 354.693> 373 54<26 354.693>
CounterMasks: 1 38
AnchorPoint: "blwmark" 240 0 basechar 0
AnchorPoint: "abvmark" 240 500 basechar 0
LayerCount: 2
Back
SplineSet
390 20 m 25
 410 0 l 1049
400 10 m 1
 400 340 l 25
 340 400 l 1
 240 300 l 1049
230 20 m 25
 250 0 l 1049
240 10 m 1
 240 340 l 25
 180 400 l 1
 80 300 l 1049
70 20 m 25
 90 0 l 1049
90 380 m 25
 70 400 l 1049
80 390 m 9
 80 10 l 1025
EndSplineSet
Fore
SplineSet
384 -17 m 1xb8
 373 -6 l 1
 363 4 l 1
 373 14 l 1
 373 324 l 2
 373 351 338 359 324 373 c 1
 267 316 l 1
 267 26 l 1
 277 16 l 1
 234 -27 l 1
 224 -17 l 1
 213 -6 l 1
 203 4 l 1
 213 14 l 1
 213 284 l 1
 213 324 l 2
 213 351 178 359 164 373 c 1
 107 316 l 1
 107 26 l 1
 117 16 l 1
 74 -27 l 1
 64 -17 l 1
 53 -6 l 1
 43 4 l 1
 53 14 l 1
 53 284 l 1
 53 374 l 1
 43 384 l 1
 86 427 l 1
 96 417 l 1
 107 406 l 1
 117 396 l 1
 107 386 l 1
 107 338 l 1
 196 427 l 1
 267 356 l 1
 267 338 l 1
 356 427 l 1
 427 356 l 1
 427 26 l 1
 437 16 l 1
 394 -27 l 1
 384 -17 l 1xb8
EndSplineSet
Substitution2: "Stylistic alternates-1" m.alt
EndChar
StartChar: r
Encoding: 114 114 82
Width: 240
Flags: W
HStem: 407 20G<66 96 156 196> 407 20G<66 96 156 196>
VStem: 53 54<26 336 358 374>
AnchorPoint: "blwmark" 120 0 basechar 0
AnchorPoint: "abvmark" 120 500 basechar 0
LayerCount: 2
Back
SplineSet
200 360 m 25
 160 400 l 25
 80 320 l 1049
70 20 m 25
 90 0 l 1049
70 400 m 25
 90 380 l 1049
80 390 m 9
 80 10 l 1025
EndSplineSet
Fore
SplineSet
43 384 m 1xa0
 86 427 l 1
 96 417 l 1
 107 406 l 1
 117 396 l 1
 107 386 l 1
 107 358 l 1
 176 427 l 1
 227 376 l 1
 184 333 l 1
 144 373 l 1
 107 336 l 1
 107 26 l 1
 117 16 l 1
 74 -27 l 1
 64 -17 l 1
 53 -6 l 1
 43 4 l 1
 53 14 l 1
 53 304 l 1
 53 374 l 1
 43 384 l 1xa0
EndSplineSet
EndChar
StartChar: w
Encoding: 119 119 87
Width: 480
Flags: W
HStem: 407 20G<66 96 226 256> 407 20G<66 96 226 256 413 431>
VStem: 53 54<64 374> 213 54<64 374> 333 54<420.879 510.085> 373 54<96 382>
AnchorPoint: "blwmark" 240 0 basechar 0
LayerCount: 2
Back
SplineSet
250 380 m 25
 230 400 l 1049
240 390 m 25
 240 80 l 1
 320 0 l 25
 400 80 l 1
 400 380 l 17
 420 342 360 423 360 472 c 8
 360 512 403 550 404 550 c 1033
90 380 m 25
 70 400 l 1049
80 390 m 25
 80 80 l 1
 160 0 l 25
 240 80 l 1025
EndSplineSet
Fore
SplineSet
107 406 m 1xb4
 117 396 l 1
 107 386 l 1
 107 96 l 2
 107 58 156 47 176 27 c 1
 213 64 l 1
 213 374 l 1
 203 384 l 1
 246 427 l 1
 256 417 l 1
 261 411 l 1
 277 396 l 1
 267 386 l 1
 267 96 l 2
 267 58 316 47 336 27 c 1
 373 64 l 1
 373 359 l 1xb4
 362 373 333 422 333 456 c 0
 333 486 358 516 370 528 c 2
 412 570 l 2
 413 571 l 2
 417 575 420 577 420 577 c 2
 431 566 l 1
 415 550 l 2
 403 536 387 512 387 488 c 0
 387 463 403 429 416 407 c 1x78
 427 396 l 2
 430 390 431 386 431 386 c 2
 427 382 l 1
 427 96 l 1
 304 -27 l 1
 224 53 l 1
 144 -27 l 1
 53 64 l 1
 53 374 l 1
 43 384 l 1
 86 427 l 1
 96 417 l 1
 107 406 l 1xb4
EndSplineSet
Substitution2: "Dotless forms-1" w.alt
EndChar
StartChar: exclamdown
Encoding: 161 161 200
Width: 240
Flags: W
HStem: 407 20G<106 146> 407 20G<106 146>
VStem: 85 70<-143.974 117.654> 93 54<8.97541 194>
LayerCount: 2
Back
SplineSet
130 380 m 25
 110 400 l 1049
140 -160 m 1
 140 -160 129 -124 128 -100 c 24
 122 21 120 210 120 210 c 1
 120 210 118 21 112 -100 c 24
 111 -139 100 -200 100 -200 c 9
 140 -160 l 1
EndSplineSet
Fore
SplineSet
167 -144 m 1x20
 84 -227 l 1
 73 -216 l 1
 73 -216 84 -155 85 -116 c 0x20
 91 5 93 194 93 194 c 1
 136 237 l 1
 147 226 l 1x10
 147 226 149 37 155 -84 c 0
 156 -108 167 -144 167 -144 c 1x20
157 396 m 1
 114 353 l 1
 83 384 l 1
 126 427 l 1x80
 157 396 l 1
EndSplineSet
EndChar
StartChar: macron
Encoding: 175 175 227
Width: 320
Flags: W
HStem: 523 54<76 244>
VStem: 33 254
LayerCount: 2
Back
SplineSet
60 550 m 1
 260 550 l 1049
EndSplineSet
Fore
SplineSet
33 534 m 1
 76 577 l 1
 276 577 l 1
 287 566 l 1
 244 523 l 1
 44 523 l 1
 33 534 l 1
EndSplineSet
EndChar
StartChar: acute
Encoding: 180 180 99
Width: 320
Flags: W
HStem: 498 229
VStem: 193 54<634.624 684>
LayerCount: 2
Back
SplineSet
220 700 m 17
 220 600 120 525 120 525 c 1049
EndSplineSet
Fore
SplineSet
236 727 m 1
 247 716 l 1
 247 649 203 594 173 564 c 2
 130 521 l 2
 115 506 104 498 104 498 c 2
 93 509 l 1
 136 552 l 2
 136 552 137 553 140 555 c 0
 166 586 193 631 193 684 c 1
 236 727 l 1
EndSplineSet
EndChar
StartChar: AE
Encoding: 198 198 188
Width: 920
Flags: W
HStem: -27 54<565.122 692.615> 273 54<764.993 783.688> 486 62G<153 184 343 374 533 552> 507 20G<656 687> 523 54<738 785.607> 573 54<654.563 696.575> 573 42<204 229.67>
VStem: 253 54<376.376 561.757> 552 16<70 473 520 579> 633 54<116 316 341 484>
AnchorPoint: "blwmark" 480 0 basechar 0
AnchorPoint: "abvmark" 480 700 basechar 0
LayerCount: 2
Back
SplineSet
410 570 m 9
 390 600 l 25
 370 570 l 1041
160 300 m 1
 160 300 184 350 240 350 c 3
 342 350 400 250 401 250 c 1025
180 575 m 1
 180 575 188 600 220 600 c 11
 259 600 280 549 280 500 c 3
 280 263 141 75 141 75 c 1025
40 0 m 1
 40 0 65 50 120 50 c 3
 198 50 220 0 220 0 c 1025
400 585 m 1
 420 300 l 1025
660 300 m 25
 660 300 698 350 720 350 c 27
 748 350 732 300 760 300 c 3
 793 300 820 350 821 350 c 1049
560 550 m 1
 560 100 l 1025
660 500 m 1
 660 100 l 1025
560 600 m 1
 560 600 420 480 420 300 c 3
 420 134 496 0 640 0 c 3
 735 0 841 150 842 150 c 1025
560 492 m 1
 560 492 636 600 684 600 c 3
 735 600 714 550 760 550 c 3
 798 550 820 600 821 600 c 1025
EndSplineSet
Fore
SplineSet
544 465 m 1xc5c0
 533 476 l 1
 533 476 540 487 552 501 c 1
 552 579 l 1
 510 530 447 437 447 316 c 0
 447 219 474 131 524 77 c 0
 559 45 602 27 656 27 c 0
 697 27 741 56 776 87 c 0
 799 113 814 133 815 134 c 2
 857 177 l 2
 858 177 l 2
 869 166 l 1
 866 163 842 130 808 96 c 2
 766 53 l 2
 727 14 674 -27 624 -27 c 0
 568 -27 522 -6 487 29 c 2
 476 40 l 2
 431 85 404 153 396 233 c 1
 385 223 l 2
 374 234 l 2
 373 235 363 252 345 271 c 0
 328 287 304 304 275 314 c 1
 234 180 168 91 168 91 c 2
 153 76 l 1
 188 72 210 58 222 46 c 2
 233 34 l 2
 243 24 247 16 247 16 c 1
 204 -27 l 1
 193 -16 l 2
 193 -16 190 -11 184 -3 c 0
 169 9 144 23 104 23 c 0
 88 23 77 19 65 13 c 2
 24 -27 l 1
 13 -16 l 1
 13 -16 19 -4 31 8 c 2
 73 50 l 2
 74 51 l 0
 86 63 103 73 126 76 c 1
 150 112 203 204 233 323 c 1
 230 323 227 323 224 323 c 0
 209 323 197 320 185 314 c 1
 144 273 l 1
 133 284 l 1
 133 284 139 296 151 308 c 2
 193 351 l 2
 204 362 221 373 244 376 c 1
 250 411 253 446 253 484 c 0
 253 514 245 544 230 564 c 0
 223 569 214 573 204 573 c 0
 197 573 192 572 186 570 c 2
 164 548 l 1
 153 559 l 1
 153 559 156 566 162 572 c 2
 204 615 l 2
 205 615 l 0xe3c0
 211 621 221 627 236 627 c 0
 248 627 258 622 267 613 c 2
 279 602 l 2
 297 583 307 549 307 516 c 0
 307 466 301 418 291 373 c 1
 330 364 361 340 382 319 c 2
 391 310 l 1
 374 562 l 1
 354 543 l 1
 343 554 l 1
 363 584 l 1
 406 627 l 1xc5c0
 417 616 l 1
 427 601 l 1
 437 586 l 1
 429 577 l 1xc9c0
 437 457 l 1
 466 514 502 554 521 573 c 2
 563 615 l 2xc3c0
 571 623 576 627 576 627 c 1
 587 616 l 1
 561 590 l 2
 558 587 555 584 552 580 c 2
 568 580 l 1
 568 520 l 1
 574 527 581 535 588 542 c 2
 631 584 l 2
 632 585 l 0
 655 608 680 627 700 627 c 0xc5c0
 715 627 723 623 729 617 c 2
 741 605 l 2
 748 598 751 588 756 581 c 0
 761 578 767 577 776 577 c 0xc9c0
 782 577 787 579 791 580 c 0
 793 583 794 584 794 584 c 2
 836 627 l 2
 837 627 l 2xc5c0
 848 616 l 2
 847 614 838 598 825 584 c 2
 782 541 l 2
 772 531 759 523 744 523 c 0xc9c0
 732 523 724 527 719 532 c 2
 708 543 l 2
 701 550 698 560 692 568 c 0
 687 571 679 573 668 573 c 0
 654 573 637 563 620 549 c 0
 601 528 587 508 587 508 c 1
 568 489 l 1
 568 70 l 1
 552 70 l 1
 552 473 l 1
 544 465 l 1xc5c0
676 527 m 1xd1c0
 687 516 l 1
 687 341 l 1
 699 354 l 2
 711 366 726 377 736 377 c 0
 741 377 744 376 747 373 c 2
 758 361 l 2
 759 361 l 2
 766 353 767 337 771 327 c 0
 773 327 774 327 776 327 c 0
 782 327 787 329 791 331 c 0
 794 334 l 2
 836 377 l 2
 837 377 l 2
 848 366 l 2
 846 364 838 348 825 335 c 2
 824 335 l 2
 781 292 l 2
 771 282 758 273 744 273 c 0
 739 273 736 274 733 277 c 2
 722 289 l 2
 715 296 713 312 709 323 c 0
 708 323 706 323 704 323 c 0
 699 323 695 321 688 317 c 0
 687 316 l 1
 687 116 l 1
 644 73 l 1
 633 84 l 1
 633 284 l 1
 633 484 l 1
 676 527 l 1xd1c0
EndSplineSet
EndChar
StartChar: hbar
Encoding: 295 295 964
Width: 320
Flags: W
HStem: 407 20G<176 216> 407 20G<176 216> 448 54<36 53 107 144>
VStem: 53 54<26 316 338 448 502 599> 213 54<26 354.693>
AnchorPoint: "abvmark" 160 700 basechar 0
AnchorPoint: "blwmark" 160 0 basechar 0
LayerCount: 2
Back
SplineSet
230 20 m 25
 250 0 l 1049
70 20 m 25
 90 0 l 1049
70 625 m 25
 90 605 l 1049
80 615 m 9
 80 10 l 1049
240 10 m 25
 240 340 l 25
 180 400 l 1
 80 300 l 1049
160 475 m 25
 20 475 l 1049
EndSplineSet
Fore
SplineSet
187 491 m 1xb8
 144 448 l 1
 107 448 l 1
 107 338 l 1
 196 427 l 1
 267 356 l 1
 267 26 l 1
 277 16 l 1
 234 -27 l 1
 224 -17 l 1
 213 -6 l 1
 203 4 l 1
 213 14 l 1
 213 324 l 2
 213 351 178 359 164 373 c 1
 107 316 l 1
 107 26 l 1
 117 16 l 1
 74 -27 l 1
 64 -17 l 1
 53 -6 l 1
 43 4 l 1
 53 14 l 1
 53 284 l 1
 53 448 l 1
 4 448 l 1
 -7 459 l 1
 36 502 l 1
 53 502 l 1
 53 599 l 1
 43 609 l 1
 86 652 l 1
 96 642 l 1
 107 631 l 1
 117 621 l 1
 107 611 l 1
 107 502 l 1
 176 502 l 1
 187 491 l 1xb8
EndSplineSet
EndChar
StartChar: lslash
Encoding: 322 322 291
Width: 160
Flags: W
VStem: 53 54<28 272 294 326 348 599>
LayerCount: 2
Back
SplineSet
140 370 m 25
 20 250 l 1049
70 20 m 25
 90 0 l 25
 110 20 l 1049
70 625 m 25
 90 605 l 1049
80 615 m 9
 80 10 l 1049
EndSplineSet
Fore
SplineSet
43 609 m 1
 86 652 l 1
 96 642 l 1
 107 631 l 1
 117 621 l 1
 107 611 l 1
 107 348 l 1
 156 397 l 1
 167 386 l 1
 107 326 l 1
 107 28 l 1
 126 47 l 1
 137 36 l 1
 74 -27 l 1
 64 -17 l 1
 53 -6 l 1
 43 4 l 1
 53 14 l 1
 53 272 l 1
 4 223 l 1
 -7 234 l 1
 53 294 l 1
 53 599 l 1
 43 609 l 1
EndSplineSet
EndChar
StartChar: eng
Encoding: 331 331 600
Width: 320
Flags: W
HStem: -227 54<163.098 199.857> -177 54<77.0729 124.656> 413 20G<66 96 176 216>
VStem: 53 54<26 322 344 380> 213 54<-158.554 330>
AnchorPoint: "abvmark" 160 500 basechar 0
LayerCount: 2
Back
SplineSet
80 306 m 25
 180 406 l 1
 240 346 l 1
 240 -150 l 1
 240 -150 202 -200 180 -200 c 0
 154 -200 137 -150 100 -150 c 16
 70 -150 40 -200 40 -200 c 1033
70 20 m 25
 90 0 l 1049
90 386 m 25
 70 406 l 1049
80 396 m 9
 80 10 l 1025
EndSplineSet
Fore
SplineSet
107 412 m 1xb8
 117 402 l 1
 107 392 l 1
 107 344 l 1
 196 433 l 1
 267 362 l 1
 267 -134 l 1
 267 -134 256 -148 243 -161 c 2
 201 -204 l 2
 189 -216 174 -227 164 -227 c 0xb8
 154 -227 147 -220 138 -211 c 2
 127 -200 l 2
 126 -200 l 0
 124 -198 121 -195 120 -194 c 0
 110 -184 99 -177 84 -177 c 0x78
 79 -177 73 -179 69 -181 c 0
 68 -183 67 -184 67 -184 c 1
 24 -227 l 1xb8
 13 -216 l 2
 13 -216 22 -200 36 -186 c 2
 37 -185 l 2
 79 -143 l 2
 89 -133 103 -123 116 -123 c 0x78
 133 -123 145 -133 156 -144 c 0
 168 -156 l 2
 170 -158 172 -160 174 -162 c 0
 181 -168 188 -173 196 -173 c 0
 201 -173 205 -171 212 -167 c 0
 213 -166 l 1
 213 330 l 1
 164 379 l 1
 107 322 l 1
 107 26 l 1
 117 16 l 1
 74 -27 l 1
 64 -17 l 1
 53 -6 l 1
 43 4 l 1
 53 14 l 1
 53 290 l 1
 53 380 l 1
 43 390 l 1
 86 433 l 1
 96 423 l 1
 107 412 l 1xb8
EndSplineSet
EndChar
StartChar: verticallinemod
Encoding: 712 712 887
Width: 320
Flags: W
HStem: 498 229
VStem: 133 54<541 684>
LayerCount: 2
Back
SplineSet
160 700 m 9
 160 525 l 1025
EndSplineSet
Fore
SplineSet
176 727 m 1
 187 716 l 1
 187 541 l 1
 144 498 l 1
 133 509 l 1
 133 684 l 1
 176 727 l 1
EndSplineSet
EndChar
StartChar: dotaccent
Encoding: 729 729 269
Width: 320
Flags: W
HStem: 533 74
VStem: 123 74
LayerCount: 2
Back
SplineSet
150 580 m 25
 170 560 l 1049
EndSplineSet
Fore
SplineSet
123 564 m 1
 166 607 l 1
 197 576 l 1
 154 533 l 1
 123 564 l 1
EndSplineSet
EndChar
StartChar: endash
Encoding: 8211 8211 257
Width: 320
Flags: W
HStem: 173 54<56 264>
VStem: 13 294
LayerCount: 2
Back
SplineSet
40 200 m 25
 280 200 l 1049
EndSplineSet
Fore
SplineSet
13 184 m 1
 56 227 l 1
 296 227 l 1
 307 216 l 1
 264 173 l 1
 24 173 l 1
 13 184 l 1
EndSplineSet
EndChar
StartChar: emdash
Encoding: 8212 8212 258
Width: 480
Flags: W
HStem: 173 54<56 424>
LayerCount: 2
Back
SplineSet
40 200 m 25
 440 200 l 1049
EndSplineSet
Fore
SplineSet
13 184 m 1
 56 227 l 1
 456 227 l 1
 467 216 l 1
 424 173 l 1
 24 173 l 1
 13 184 l 1
EndSplineSet
EndChar
StartChar: quoteleft
Encoding: 8216 8216 254
Width: 240
Flags: W
HStem: 428 124
VStem: 88 84
LayerCount: 2
Back
SplineSet
135 455 m 25
 115 475 l 1
 115 495 l 25
 145 525 l 1049
EndSplineSet
Fore
SplineSet
162 471 m 1
 119 428 l 1
 88 459 l 1
 88 479 l 1
 161 552 l 1
 172 541 l 1
 142 511 l 1
 142 491 l 1
 162 471 l 1
EndSplineSet
EndChar
StartChar: quotereversed
Encoding: 8219 8219 928
Width: 240
Flags: W
HStem: 473 124
VStem: 88 84
LayerCount: 2
Back
SplineSet
135 570 m 25
 115 550 l 1
 115 530 l 25
 145 500 l 1049
EndSplineSet
Fore
SplineSet
119 597 m 1
 162 554 l 1
 142 534 l 1
 142 514 l 2
 142 514 168 488 172 484 c 1
 161 473 l 1
 88 546 l 1
 88 566 l 1
 119 597 l 1
EndSplineSet
EndChar
StartChar: quotedblrev
Encoding: 8223 8223 929
Width: 400
Flags: W
HStem: 473 124
VStem: 88 244
LayerCount: 2
Back
SplineSet
135 570 m 25
 115 550 l 1
 115 530 l 25
 145 500 l 1049
295 570 m 25
 275 550 l 1
 275 530 l 25
 305 500 l 1049
EndSplineSet
Fore
SplineSet
279 597 m 1
 322 554 l 1
 302 534 l 1
 302 514 l 2
 302 514 328 488 332 484 c 1
 321 473 l 1
 248 546 l 1
 248 566 l 1
 279 597 l 1
119 597 m 1
 162 554 l 1
 142 534 l 1
 142 514 l 2
 142 514 168 488 172 484 c 1
 161 473 l 1
 88 546 l 1
 88 566 l 1
 119 597 l 1
EndSplineSet
EndChar
StartChar: daggerdbl
Encoding: 8225 8225 263
Width: 320
Flags: W
HStem: 407 20G<36 76 191 276> 407 20G<36 76 191 276> 607 20G<176 207>
VStem: 113 94<-151 -12.6882 412.688 551> 130 60<-143.974 -11 50 350 411 543.974>
LayerCount: 2
Back
SplineSet
40 40 m 25
 80 0 l 25
 240 40 l 25
 280 0 l 1049
40 400 m 25
 80 360 l 25
 240 400 l 25
 280 360 l 1049
140 560 m 1
 140 560 151 524 152 500 c 24
 158 383 160 200 160 200 c 1
 160 200 162 383 168 500 c 24
 170 539 180 600 180 600 c 9
 140 560 l 1
180 -160 m 1
 180 -160 169 -124 168 -100 c 24
 162 17 160 200 160 200 c 1
 160 200 158 17 152 -100 c 24
 150 -139 140 -200 140 -200 c 9
 180 -160 l 1
EndSplineSet
Fore
SplineSet
207 -144 m 1xb0
 124 -227 l 1
 113 -216 l 1xb0
 113 -216 123 -155 125 -116 c 0
 127 -84 128 -47 129 -11 c 1
 64 -27 l 1
 13 24 l 1
 56 67 l 1
 96 27 l 1
 130 36 l 1
 132 116 133 184 133 184 c 2
 133 184 132 263 130 350 c 1xa8
 64 333 l 1
 13 384 l 1
 56 427 l 1
 96 387 l 1
 129 395 l 1
 128 426 126 457 125 484 c 0
 124 508 113 544 113 544 c 1
 196 627 l 1
 207 616 l 1xb0
 207 616 197 555 195 516 c 0
 193 484 192 447 191 411 c 1
 256 427 l 1
 307 376 l 1
 264 333 l 1
 224 373 l 1
 190 364 l 1
 188 284 187 216 187 216 c 1
 187 216 188 137 190 50 c 1xa8
 256 67 l 1
 307 16 l 1
 264 -27 l 1
 224 13 l 1
 191 5 l 1
 192 -26 194 -57 195 -84 c 0
 196 -108 207 -144 207 -144 c 1xb0
EndSplineSet
EndChar
StartChar: refmark
Encoding: 8251 8251 953
Width: 480
Flags: W
HStem: 468 21G<234 274> 522 5G<76 107 246 286 396 427>
LayerCount: 2
Back
SplineSet
400 500 m 25
 80 100 l 1049
80 500 m 25
 400 100 l 1049
390 340 m 25
 410 320 l 1049
210 105 m 25
 230 85 l 1049
250 515 m 25
 270 495 l 1049
70 280 m 25
 90 260 l 1049
EndSplineSet
Fore
SplineSet
43 264 m 1
 86 307 l 1
 117 276 l 1
 74 233 l 1
 43 264 l 1
223 499 m 1
 266 542 l 1
 297 511 l 1
 254 468 l 1
 223 499 l 1
183 89 m 1
 226 132 l 1
 257 101 l 1
 214 58 l 1
 183 89 l 1
363 324 m 1
 406 367 l 1
 437 336 l 1
 394 293 l 1
 363 324 l 1
96 527 m 1
 107 516 l 1
 252 334 l 1
 373 484 l 1
 416 527 l 1
 427 516 l 1
 267 316 l 1
 427 116 l 1
 384 73 l 1
 373 84 l 1
 228 266 l 1
 107 116 l 1
 64 73 l 1
 53 84 l 1
 213 284 l 1
 53 484 l 1
 96 527 l 1
EndSplineSet
EndChar
StartChar: et
Encoding: 8266 8266 960
Width: 320
Flags: W
HStem: -177 21G<93 124> 323 54<115.836 225.922> 407 20G<56 124 256 307> 407 20G<56 124 256 307>
VStem: 93 54<-134 57.2992>
LayerCount: 2
Back
SplineSet
60 400 m 1
 60 400 110 350 180 350 c 3
 223 350 280 400 280 400 c 1
 280 400 120 176 120 -100 c 3
 120 -68 120 -150 120 -150 c 1025
EndSplineSet
Fore
SplineSet
147 -84 m 2xe8
 147 -134 l 1
 104 -177 l 1
 93 -166 l 1
 93 -108 l 0
 95 98 186 273 230 347 c 1
 211 335 185 323 164 323 c 0
 94 323 44 373 44 373 c 1
 33 384 l 1
 76 427 l 1
 76 427 126 377 196 377 c 0
 239 377 296 427 296 427 c 1
 307 416 l 1
 307 416 149 195 147 -78 c 0
 147 -80 147 -82 147 -84 c 2xe8
EndSplineSet
EndChar
StartChar: because
Encoding: 8757 8757 897
Width: 480
Flags: W
VStem: 83 314
LayerCount: 2
Back
SplineSet
350 350 m 25
 370 330 l 1049
110 350 m 25
 130 330 l 1049
230 20 m 25
 250 0 l 1049
EndSplineSet
Fore
SplineSet
203 4 m 1
 246 47 l 1
 277 16 l 1
 234 -27 l 1
 203 4 l 1
83 334 m 1
 126 377 l 1
 157 346 l 1
 114 303 l 1
 83 334 l 1
323 334 m 1
 366 377 l 1
 397 346 l 1
 354 303 l 1
 323 334 l 1
EndSplineSet
EndChar
StartChar: bracketangleleft
Encoding: 9296 9296 930
Width: 320
Flags: W
HStem: -177 21G<253 284>
VStem: 13 294
LayerCount: 2
Back
SplineSet
260 675 m 17
 260 675 196 554 180 525 c 0
 144 459 40 250 40 250 c 1
 40 250 163 60 200 0 c 0
 214 -22 280 -150 280 -150 c 1033
EndSplineSet
Fore
SplineSet
276 702 m 1
 287 691 l 1
 287 691 223 570 207 541 c 0
 171 475 67 266 67 266 c 1
 67 266 190 76 227 16 c 0
 241 -6 307 -134 307 -134 c 1
 264 -177 l 1
 253 -166 l 1
 253 -166 187 -38 173 -16 c 0
 136 44 13 234 13 234 c 1
 13 234 117 443 153 509 c 0
 169 538 233 659 233 659 c 1
 276 702 l 1
EndSplineSet
EndChar
StartChar: barquillright
Encoding: 11809 11809 921
Width: 240
Flags: W
HStem: -177 21G<133 164> 273 54<56 133>
VStem: 133 54<-134 273 327 684>
LayerCount: 2
Back
SplineSet
40 300 m 25
 160 300 l 1049
160 700 m 25
 160 -150 l 1049
EndSplineSet
Fore
SplineSet
176 727 m 1
 187 716 l 1
 187 316 l 1
 187 -134 l 1
 144 -177 l 1
 133 -166 l 1
 133 273 l 1
 24 273 l 1
 13 284 l 1
 56 327 l 1
 133 327 l 1
 133 684 l 1
 176 727 l 1
EndSplineSet
EndChar
StartChar: Ubracketleft
Encoding: 11814 11814 912
Width: 400
Flags: W
HStem: -27 54<183.156 344> 373 54<183.625 344>
VStem: 53 54<117.027 285.226>
LayerCount: 2
Back
SplineSet
360 400 m 1
 240 400 l 26
 152 400 80 310 80 200 c 27
 80 90 152 0 240 0 c 26
 360 0 l 1025
EndSplineSet
Fore
SplineSet
387 416 m 1
 344 373 l 1
 224 373 l 2
 196 373 170 364 147 348 c 1
 122 313 107 267 107 216 c 0
 107 156 129 101 162 65 c 0
 189 41 221 27 256 27 c 2
 376 27 l 1
 387 16 l 1
 344 -27 l 1
 224 -27 l 2
 186 -27 152 -10 125 17 c 2
 114 28 l 2
 77 65 53 121 53 184 c 0
 53 247 76 304 113 341 c 2
 156 383 l 2
 183 410 218 427 256 427 c 2
 376 427 l 1
 387 416 l 1
EndSplineSet
EndChar
StartChar: a_u
Encoding: 42807 42807 344
Width: 480
Flags: W
HStem: 198 54<159.094 213> 407 20G<136 236 386 416> 407 20G<136 236 386 416>
VStem: 53 54<76 174> 213 54<84 198 252 351> 373 54<36 62 84 374>
CounterMasks: 1 1c
AnchorPoint: "blwmark" 240 0 basechar 0
AnchorPoint: "abvmark" 240 500 basechar 0
LayerCount: 2
Back
SplineSet
240 100 m 9
 140 0 l 1
 80 60 l 1
 80 190 l 1
 140 250 l 1
 140 250 155 225 200 225 c 3
 176.991563428 225 240 225 240 225 c 1033
460 40 m 25
 420 0 l 1
 400 20 l 17
 400 390 l 1025
410 380 m 25
 390 400 l 1049
400 100 m 25
 300 0 l 25
 240 60 l 1
 240 375 l 17
 140 400 l 1
 80 340 l 1
 100 280 l 1033
EndSplineSet
Fore
SplineSet
476 67 m 1xdc
 487 56 l 1
 404 -27 l 1
 373 4 l 1
 373 62 l 1
 284 -27 l 1
 213 44 l 1
 213 62 l 1
 124 -27 l 1
 53 44 l 1
 53 174 l 1
 156 277 l 1
 167 266 l 2
 175 260 191 253 213 252 c 1
 213 351 l 1
 124 373 l 2
 124 373 109 358 107 356 c 2
 127 296 l 1
 84 253 l 1
 73 264 l 1
 53 324 l 1
 156 427 l 1
 256 402 l 1
 267 391 l 1
 267 241 l 1
 267 116 l 1
 267 76 l 1
 316 27 l 1
 373 84 l 1
 373 374 l 1
 363 384 l 1
 406 427 l 1
 416 417 l 1
 427 406 l 1
 437 396 l 1
 427 386 l 1
 427 116 l 1
 427 36 l 1
 436 27 l 1
 476 67 l 1xdc
184 198 m 2
 183 198 184 198 183 198 c 2
 184 198 l 2
213 84 m 1
 213 198 l 1
 179 198 l 2
 151 199 136 210 129 217 c 0
 129 218 l 2
 124 223 l 1
 107 206 l 1
 107 76 l 1
 156 27 l 1
 213 84 l 1
EndSplineSet
LCarets2: 1 240 
Ligature2: "Historic ligatures-1" a u
EndChar
StartChar: o_o
Encoding: 42831 42831 669
Width: 480
Flags: W
HStem: 407 20G<156 196 316 356> 407 20G<156 196 316 356>
VStem: 53 54<64 304> 213 54<64 336> 373 54<96 336>
CounterMasks: 1 38
AnchorPoint: "blwmark" 240 0 basechar 0
AnchorPoint: "abvmark" 240 500 basechar 0
LayerCount: 2
Back
SplineSet
320 400 m 25
 240 320 l 25
 240 80 l 25
 320 0 l 25
 400 80 l 25
 400 320 l 25
 320 400 l 25
160 400 m 25
 80 320 l 25
 80 80 l 25
 160 0 l 25
 240 80 l 25
 240 320 l 25
 160 400 l 25
EndSplineSet
Fore
SplineSet
144 373 m 1x38
 107 336 l 1
 107 96 l 2
 107 58 156 47 176 27 c 1
 213 64 l 1
 213 304 l 2
 213 342 164 353 144 373 c 1x38
53 304 m 1
 176 427 l 1
 256 347 l 1
 336 427 l 1xb8
 427 336 l 1
 427 96 l 1
 304 -27 l 1
 224 53 l 1
 144 -27 l 1
 53 64 l 1
 53 304 l 1
267 96 m 2
 267 58 316 47 336 27 c 1
 373 64 l 1
 373 304 l 2
 373 342 324 353 304 373 c 1
 267 336 l 1
 267 96 l 2
EndSplineSet
LCarets2: 1 240 
Ligature2: "Historic ligatures-1" o o
EndChar
StartChar: pbar
Encoding: 42833 42833 868
Width: 320
Flags: W
HStem: -177 21G<53 84> -102 54<36 53 107 144> 407 20G<66 96 156 196> 407 20G<66 96 156 196>
VStem: 53 54<-134 -102 -48 52 125 336 358 374> 213 54<56 336>
AnchorPoint: "abvmark" 160 500 basechar 0
LayerCount: 2
Back
SplineSet
40 50 m 1
 40 50 77 100 100 100 c 0
 165 100 200 0 200 0 c 9
 240 40 l 1
 240 320 l 25
 160 400 l 1
 80 320 l 1049
70 400 m 25
 90 380 l 1049
80 390 m 1
 80 -150 l 1025
160 -75 m 25
 20 -75 l 1049
EndSplineSet
Fore
SplineSet
187 -59 m 1xec
 144 -102 l 1
 107 -102 l 1
 107 -134 l 1
 64 -177 l 1
 53 -166 l 1
 53 -102 l 1
 4 -102 l 1
 -7 -91 l 1
 36 -48 l 1
 53 -48 l 1
 53 52 l 1
 24 23 l 1
 13 34 l 1
 13 34 24 49 37 62 c 2
 53 78 l 1
 53 304 l 1
 53 374 l 1
 43 384 l 1
 86 427 l 1
 96 417 l 1
 107 406 l 1
 117 396 l 1
 107 386 l 1
 107 358 l 1
 176 427 l 1
 267 336 l 1
 267 56 l 1
 184 -27 l 1
 173 -16 l 2
 173 -16 160 24 134 53 c 0
 126 60 117 65 107 69 c 1
 107 -48 l 1
 176 -48 l 1
 187 -59 l 1xec
107 336 m 1
 107 125 l 2
 110 126 113 127 116 127 c 0
 138 127 155 116 170 101 c 2
 182 90 l 2
 195 77 206 60 213 46 c 1
 213 304 l 2
 213 342 164 353 144 373 c 1
 107 336 l 1
EndSplineSet
EndChar
StartChar: rrotunda
Encoding: 42843 42843 96
Width: 240
Flags: W
HStem: 407 20G<76 107> 407 20G<76 107>
VStem: 13 214
AnchorPoint: "blwmark" 120 0 basechar 0
AnchorPoint: "abvmark" 120 500 basechar 0
LayerCount: 2
Back
SplineSet
200 40 m 25
 160 0 l 1
 80 220 l 25
 160 300 l 1
 80 400 l 1
 40 360 l 1049
EndSplineSet
Fore
SplineSet
216 67 m 1xa0
 227 56 l 1
 144 -27 l 1
 133 -16 l 1
 53 204 l 1
 133 284 l 1
 63 372 l 1
 24 333 l 1
 13 344 l 1
 96 427 l 1
 107 416 l 1
 187 316 l 1
 107 236 l 1
 181 32 l 1
 216 67 l 1xa0
EndSplineSet
EndChar
StartChar: con
Encoding: 42863 42863 890
Width: 320
Flags: W
HStem: -177 21G<173 204> 407 20G<156 196> 407 20G<156 196>
VStem: 53 54<64 304> 213 54<-94 336>
LayerCount: 2
Back
SplineSet
200 -150 m 25
 240 -110 l 1
 240 320 l 9
 160 400 l 1
 80 320 l 25
 80 80 l 25
 160 0 l 1049
EndSplineSet
Fore
SplineSet
184 -177 m 1xd8
 173 -166 l 1
 213 -126 l 1
 213 304 l 2
 213 342 164 353 144 373 c 1
 107 336 l 1
 107 96 l 2
 107 58 156 47 176 27 c 2
 187 16 l 1
 144 -27 l 1
 53 64 l 1
 53 304 l 1
 176 427 l 1
 267 336 l 1
 267 -94 l 1
 184 -177 l 1xd8
EndSplineSet
EndChar
StartChar: Rumsmallcap
Encoding: 42870 42870 858
Width: 520
Flags: W
HStem: -177 21G<253 284> -27 54<399.5 448.822> 407 20G<66 96 156 200> 407 20G<66 96 156 200>
VStem: 53 54<26 336 358 374> 373 54<43.1129 180>
LayerCount: 2
Back
SplineSet
360 225 m 1
 400 200 l 1
 400 200 400 139 400 100 c 27
 400 3 280 -150 280 -150 c 1025
480 50 m 17
 480 50 465 0 420 0 c 3
 345 0 320 40 320 40 c 9
 280 0 l 1
 280 0 263 79 240 125 c 24
 223 159 180 200 180 200 c 1025
70 20 m 25
 90 0 l 1049
70 400 m 25
 90 380 l 1049
80 390 m 9
 80 10 l 1025
160 180 m 1
 280 300 l 1
 160 400 l 1
 80 320 l 1049
EndSplineSet
Fore
SplineSet
144 153 m 1xec
 133 164 l 1
 153 184 l 1
 196 227 l 1
 252 283 l 1
 144 373 l 2
 144 373 111 340 107 336 c 2
 107 26 l 1
 117 16 l 1
 74 -27 l 1
 64 -17 l 1
 53 -6 l 1
 43 4 l 1
 53 14 l 1
 53 304 l 1
 53 374 l 1
 43 384 l 1
 86 427 l 1
 96 417 l 1
 107 406 l 1
 117 396 l 1
 107 386 l 1
 107 358 l 1
 176 427 l 1
 296 327 l 1
 307 316 l 1
 207 216 l 1
 211 211 l 2
 222 200 253 168 267 141 c 0
 283 109 296 61 303 34 c 1
 336 67 l 1
 347 56 l 1
 347 56 347 54 348 53 c 0
 353 49 359 46 367 42 c 1
 371 57 373 71 373 84 c 2
 373 180 l 1
 344 198 l 1
 333 209 l 1
 376 252 l 1
 416 227 l 1
 427 216 l 1
 427 116 l 2
 427 90 419 59 406 29 c 1
 415 27 425 27 436 27 c 0
 442 27 446 28 451 29 c 0
 452 32 453 34 453 34 c 1
 496 77 l 1
 507 66 l 1
 507 66 502 47 487 33 c 2
 444 -10 l 2
 435 -19 422 -27 404 -27 c 0
 395 -27 387 -26 379 -25 c 1
 346 -85 307 -134 307 -134 c 1
 264 -177 l 1
 253 -166 l 1
 253 -166 310 -94 345 -17 c 1
 328 -10 317 -1 311 5 c 2
 304 13 l 1
 264 -27 l 1
 253 -16 l 1
 253 -16 236 63 213 109 c 0
 202 132 178 159 164 173 c 1
 144 153 l 1xec
EndSplineSet
EndChar
StartChar: e_y
Encoding: 61127 61127 351
Width: 480
GlyphClass: 3
Flags: W
HStem: -227 54<319.387 359.888> -177 54<237.117 279.574> 407 20G<156 196 386 416> 407 20G<156 196 386 416>
VStem: 53 54<96 136 158 304> 213 54<96 242 264 304> 373 54<-159.543 42 64 374>
CounterMasks: 1 0e
LayerCount: 2
Back
SplineSet
410 380 m 25
 390 400 l 1049
200 -200 m 17
 200 -200 230 -150 260 -150 c 8
 284 -150 315 -200 340 -200 c 24
 363 -200 400 -150 400 -150 c 1
 400 390 l 1025
400 80 m 9
 320 0 l 25
 240 80 l 1
 240 320 l 1049
240 80 m 9
 160 0 l 25
 80 80 l 25
 80 320 l 25
 160 400 l 25
 240 320 l 1
 240 280 l 9
 80 120 l 1049
EndSplineSet
Fore
SplineSet
107 136 m 1x0e
 107 96 l 1
 176 27 l 1
 213 64 l 1
 213 242 l 1
 107 136 l 1x0e
184 -227 m 1x8e
 173 -216 l 1
 173 -216 183 -199 197 -185 c 2
 239 -143 l 2
 249 -133 263 -123 276 -123 c 0x4e
 300 -123 331 -173 356 -173 c 0
 361 -173 367 -170 372 -167 c 0
 373 -166 l 1
 373 42 l 1
 304 -27 l 1
 224 53 l 1
 144 -27 l 1
 53 64 l 1
 53 304 l 1
 176 427 l 1
 256 347 l 1
 267 336 l 1
 267 296 l 1
 267 96 l 1
 336 27 l 1
 373 64 l 1
 373 374 l 1
 363 384 l 1
 406 427 l 1
 416 417 l 1
 427 406 l 1
 437 396 l 1
 427 386 l 1
 427 96 l 1
 427 -134 l 1
 427 -134 416 -149 403 -162 c 2
 361 -204 l 2
 349 -216 335 -227 324 -227 c 0xae
 299 -227 268 -177 244 -177 c 0x4e
 239 -177 234 -178 229 -181 c 0
 228 -183 227 -184 227 -184 c 1
 184 -227 l 1x8e
213 264 m 1
 213 304 l 1
 144 373 l 1
 107 336 l 1
 107 158 l 1
 213 264 l 1
EndSplineSet
LCarets2: 1 240 
Ligature2: "Historic ligatures-1" e y
EndChar
StartChar: t_r
Encoding: 61144 61144 729
Width: 400
Flags: W
HStem: 373 54<56 73 127 213> 557 20G<96 127 316 356>
VStem: 73 54<32.437 373 427 534> 213 54<26 62 84 336 358 373>
LayerCount: 2
Back
SplineSet
360 360 m 25
 320 400 l 25
 240 320 l 1049
230 20 m 25
 250 0 l 1049
240 390 m 9
 240 10 l 1025
100 550 m 1
 100 40 l 1
 140 0 l 1
 220 80 l 1025
40 400 m 1
 230 400 l 25
 250 380 l 1025
EndSplineSet
Fore
SplineSet
13 384 m 1
 56 427 l 1
 73 427 l 1
 73 534 l 1
 116 577 l 1
 127 566 l 1
 127 427 l 1
 246 427 l 1
 256 417 l 1
 267 406 l 1
 277 396 l 1
 267 386 l 1
 267 358 l 1
 336 427 l 1
 387 376 l 1
 344 333 l 1
 304 373 l 1
 267 336 l 1
 267 26 l 1
 277 16 l 1
 234 -27 l 1
 224 -17 l 1
 213 -6 l 1
 203 4 l 1
 213 14 l 1
 213 62 l 1
 124 -27 l 1
 73 24 l 1
 73 373 l 1
 24 373 l 1
 13 384 l 1
127 373 m 1
 127 56 l 2
 127 41 148 35 156 27 c 1
 213 84 l 1
 213 304 l 1
 213 373 l 1
 127 373 l 1
EndSplineSet
LCarets2: 1 240 
Ligature2: "Ligatures-1" t r
EndChar
StartChar: t_y
Encoding: 61147 61147 731
Width: 520
Flags: W
HStem: -227 54<359.387 399.888> -177 54<277.117 319.574> 373 54<56 73 127 253> 557 20G<96 127 426 466>
VStem: 73 54<32.437 373 427 534> 253 54<96 373> 413 54<-159.543 42 64 374>
LayerCount: 2
Back
SplineSet
450 380 m 25
 430 400 l 1049
240 -200 m 17
 240 -200 270 -150 300 -150 c 8
 324 -150 355 -200 380 -200 c 24
 403 -200 440 -150 440 -150 c 1
 440 390 l 1025
440 80 m 9
 360 0 l 25
 280 80 l 1
 280 390 l 1049
100 550 m 1
 100 40 l 1
 140 0 l 1
 220 80 l 1025
40 400 m 1
 270 400 l 1
 290 380 l 1025
EndSplineSet
Fore
SplineSet
13 384 m 1xbe
 56 427 l 1
 73 427 l 1
 73 534 l 1
 116 577 l 1
 127 566 l 1
 127 427 l 1
 286 427 l 1
 296 417 l 1
 317 396 l 1
 307 386 l 1
 307 96 l 1
 376 27 l 1
 413 64 l 1
 413 374 l 1
 403 384 l 1
 446 427 l 1
 477 396 l 1
 467 386 l 1
 467 96 l 1
 467 -134 l 1
 467 -134 456 -149 443 -162 c 2
 401 -204 l 2
 389 -216 375 -227 364 -227 c 0xbe
 339 -227 308 -177 284 -177 c 0x7e
 279 -177 274 -178 269 -181 c 0
 268 -183 267 -184 267 -184 c 1
 224 -227 l 1xbe
 213 -216 l 1
 213 -216 223 -199 237 -185 c 2
 279 -143 l 2
 289 -133 303 -123 316 -123 c 0x7e
 340 -123 371 -173 396 -173 c 0
 401 -173 407 -170 412 -167 c 0
 413 -166 l 1
 413 42 l 1
 344 -27 l 1
 253 64 l 1
 253 373 l 1
 127 373 l 1
 127 56 l 2
 127 41 148 35 156 27 c 1
 236 107 l 1
 247 96 l 1
 124 -27 l 1
 73 24 l 1
 73 373 l 1
 24 373 l 1
 13 384 l 1xbe
EndSplineSet
LCarets2: 1 240 
Ligature2: "Ligatures-1" t y
EndChar
StartChar: m.alt
Encoding: 61987 61987 588
Width: 480
Flags: W
HStem: 407 20G<66 96 176 216 336 376> 407 20G<66 96 176 216 336 376>
VStem: 53 54<26 316 338 374> 213 54<26 316 338 354.693> 373 54<-94 354.693>
CounterMasks: 1 38
AnchorPoint: "abvmark" 240 500 basechar 0
LayerCount: 2
Back
SplineSet
230 20 m 25
 250 0 l 1049
240 10 m 1
 240 340 l 25
 180 400 l 1
 80 300 l 1049
70 20 m 25
 90 0 l 1049
90 380 m 25
 70 400 l 1049
80 390 m 9
 80 10 l 1025
380 -130 m 25
 400 -110 l 1
 400 340 l 9
 340 400 l 1
 240 300 l 1049
EndSplineSet
Fore
SplineSet
364 -157 m 1xb8
 353 -146 l 1
 373 -126 l 1
 373 324 l 2
 373 351 338 359 324 373 c 1
 267 316 l 1
 267 26 l 1
 277 16 l 1
 234 -27 l 1
 224 -17 l 1
 213 -6 l 1
 203 4 l 1
 213 14 l 1
 213 284 l 1
 213 324 l 2
 213 351 178 359 164 373 c 1
 107 316 l 1
 107 26 l 1
 117 16 l 1
 74 -27 l 1
 64 -17 l 1
 53 -6 l 1
 43 4 l 1
 53 14 l 1
 53 284 l 1
 53 374 l 1
 43 384 l 1
 86 427 l 1
 96 417 l 1
 107 406 l 1
 117 396 l 1
 107 386 l 1
 107 338 l 1
 196 427 l 1
 267 356 l 1
 267 338 l 1
 356 427 l 1
 427 356 l 1
 427 -94 l 1
 364 -157 l 1xb8
EndSplineSet
EndChar
StartChar: f_f_l
Encoding: 64260 64260 325
Width: 520
Flags: W
HStem: -227 54<19.2066 62.849 169.997 219.816> -177 54<-62.8828 -19.1811> 373 54<56 73 127 233 287 384> 598 54<364.576 413>
VStem: 73 54<-137.562 373 427 554> 233 54<-158.782 373 427 561.053> 413 54<28 402 427 598>
LayerCount: 2
Back
SplineSet
100 -150 m 1
 125 -150 174 -200 200 -200 c 0
 222 -200 260 -150 260 -150 c 1
 260 570 l 1
 340 650 l 17
 340 650 406 625 430 625 c 1
 450 605 l 1025
-100 -200 m 17
 -100 -200 -70 -150 -40 -150 c 8
 -3 -150 3 -200 40 -200 c 24
 70 -200 100 -150 100 -150 c 1
 100 570 l 1
 180 650 l 1
 180 650 225 570 260 570 c 1025
40 400 m 25
 400 400 l 1049
430 20 m 25
 450 0 l 25
 470 20 l 1049
440 615 m 9
 440 10 l 1049
EndSplineSet
Fore
SplineSet
13 384 m 1xbe
 56 427 l 1
 73 427 l 1
 73 554 l 1
 196 677 l 1
 207 666 l 1
 207 666 224 635 245 612 c 0
 255 603 266 597 276 597 c 1
 356 677 l 1
 356 677 422 652 446 652 c 1
 456 642 l 1
 467 631 l 1
 477 621 l 1
 467 611 l 1
 467 28 l 1
 486 47 l 1
 497 36 l 1
 434 -27 l 1
 424 -17 l 1
 413 -6 l 1
 403 4 l 1
 413 14 l 1
 413 402 l 1
 384 373 l 1
 287 373 l 1
 287 -134 l 2
 287 -134 277 -147 264 -160 c 2
 263 -161 l 2
 221 -204 l 2
 209 -216 194 -227 184 -227 c 0
 160 -227 116 -184 90 -178 c 1
 61 -207 l 2
 51 -217 37 -227 24 -227 c 0xbe
 11 -227 2 -221 -6 -213 c 2
 -17 -201 l 2
 -22 -196 -26 -191 -31 -186 c 0
 -37 -181 -46 -177 -56 -177 c 0x7e
 -61 -177 -66 -178 -71 -181 c 0
 -72 -183 -73 -184 -73 -184 c 1
 -116 -227 l 1xbe
 -127 -216 l 1
 -127 -216 -117 -199 -103 -185 c 2
 -61 -143 l 2
 -51 -133 -37 -123 -24 -123 c 0x7e
 -11 -123 -2 -129 6 -137 c 2
 17 -149 l 2
 22 -154 27 -159 31 -164 c 0
 38 -170 46 -173 56 -173 c 0
 61 -173 67 -171 71 -169 c 0
 72 -167 73 -166 73 -166 c 1
 73 373 l 1
 24 373 l 1
 13 384 l 1xbe
413 427 m 1
 413 598 l 1
 388 599 324 623 324 623 c 1
 287 586 l 1
 287 427 l 1
 413 427 l 1
127 427 m 1
 233 427 l 1
 233 546 l 1
 225 549 216 556 208 564 c 2
 197 575 l 2
 183 589 170 607 162 620 c 1
 127 586 l 1
 127 427 l 1
127 373 m 1
 127 -126 l 1
 153 -136 194 -173 216 -173 c 0
 221 -173 226 -171 232 -167 c 0
 232 -166 233 -166 233 -166 c 1
 233 373 l 1
 127 373 l 1
EndSplineSet
LCarets2: 2 240 400 
Ligature2: "Ligatures-1" f f l
EndChar
